<?xml version="1.0" standalone="no"?>
<!DOCTYPE svg PUBLIC "-//W3C//DTD SVG 1.0//EN" "http://www.w3.org/TR/2001/REC-SVG-20010904/DTD/svg10.dtd">
<svg xmlns="http://www.w3.org/2000/svg" xmlns:xlink="http://www.w3.org/1999/xlink" id="body_1" width="1024" height="768">

<g transform="matrix(32 0 0 32 128 -0)">
    <path d="M10 12C 10 10.895431 10.895431 10 12 10C 13.104569 10 14 10.895431 14 12C 14 13.104569 13.104569 14 12 14C 10.895431 14 10 13.104569 10 12z" stroke="#E5E5EA" stroke-width="1" fill="none" />
    <path d="M18 12C 18 10.895431 18.89543 10 20 10C 21.10457 10 22 10.895431 22 12C 22 13.104569 21.10457 14 20 14C 18.89543 14 18 13.104569 18 12z" stroke="#E5E5EA" stroke-width="1" fill="none" />
    <path d="M2 12C 2 10.895431 2.8954306 10 4 10C 5.1045694 10 6 10.895431 6 12C 6 13.104569 5.1045694 14 4 14C 2.8954306 14 2 13.104569 2 12z" stroke="#E5E5EA" stroke-width="1" fill="none" />
</g>
</svg>