<?xml version="1.0" standalone="no"?>
<!DOCTYPE svg PUBLIC "-//W3C//DTD SVG 1.0//EN" "http://www.w3.org/TR/2001/REC-SVG-20010904/DTD/svg10.dtd">
<svg xmlns="http://www.w3.org/2000/svg" xmlns:xlink="http://www.w3.org/1999/xlink" id="body_1" width="1024" height="768">

<g transform="matrix(32 0 0 32 128 -0)">
    <path d="M12.5 7C 12.500001 8.10457 12.109476 9.047379 11.328427 9.828427C 10.547379 10.609476 9.60457 11 8.5 11C 7.395431 11 6.452622 10.609476 5.6715727 9.828427C 4.8905244 9.047379 4.5 8.10457 4.5 7C 4.5 5.8954306 4.8905244 4.9526215 5.6715727 4.1715727C 6.452622 3.3905244 7.395431 3 8.5 3C 9.60457 3 10.547379 3.3905244 11.328427 4.1715727C 12.109476 4.9526215 12.500001 5.8954306 12.5 7C 12.500001 7.0465474 12.499188 7.09308 12.497563 7.139598" stroke="#E5E5EA" stroke-width="1" fill="none" />
    <path d="M1 20.5L1 16.5L4 13.5L8.5 15L13 13.5L16 16.5L16 20.5" stroke="#E5E5EA" stroke-width="1" fill="none" />
    <path d="M13.9 3.3C 14.407922 3.0940623 14.951976 2.992052 15.5 3C 17.118784 2.9920073 18.582792 3.9604945 19.208681 5.4534082C 19.834568 6.946322 19.498924 8.669293 18.358416 9.818104C 17.217905 10.966914 15.497414 11.315044 14 10.7" stroke="#E5E5EA" stroke-width="1" fill="none" />
    <path d="M17 14.5L20 13.5L23 16.5L23 20.5" stroke="#E5E5EA" stroke-width="1" fill="none" />
</g>
</svg>